PathFileType	4	(X/Y/Z)	 s02c0201.trc
DataRate	CameraRate	NumFrames	NumMarkers	Units	OrigDataRate	OrigDataStartFrame	OrigNumFrames
200	200	6	51	mm	200	501	2000
Frame#	Time	racr			lacr			c7			jug			rlel			rdr			llel			ldr			s2			lic			ric			lasi			rasi			rpsi			lpsi			rgt			lgt			rth1			rth2			rth3			rth4			rlfc			rmfc			rsh1			rsh2			rsh3			rsh4			rlmal			rmmal			rcal			rtoe			rmt5			rmt1			lth1			lth2			lth4			lth3			llfc			lmfc			lsh1			lsh2			lsh3			lsh4			llmal			lmmal			lcal			ltoe			lmt5			SBIKE			LBIKE			RBIKE			
		X1	Y1	Z1	X2	Y2	Z2	X3	Y3	Z3	X4	Y4	Z4	X5	Y5	Z5	X6	Y6	Z6	X7	Y7	Z7	X8	Y8	Z8	X9	Y9	Z9	X10	Y10	Z10	X11	Y11	Z11	X12	Y12	Z12	X13	Y13	Z13	X14	Y14	Z14	X15	Y15	Z15	X16	Y16	Z16	X17	Y17	Z17	X18	Y18	Z18	X19	Y19	Z19	X20	Y20	Z20	X21	Y21	Z21	X22	Y22	Z22	X23	Y23	Z23	X24	Y24	Z24	X25	Y25	Z25	X26	Y26	Z26	X27	Y27	Z27	X28	Y28	Z28	X29	Y29	Z29	X30	Y30	Z30	X31	Y31	Z31	X32	Y32	Z32	X33	Y33	Z33	X34	Y34	Z34	X35	Y35	Z35	X36	Y36	Z36	X37	Y37	Z37	X38	Y38	Z38	X39	Y39	Z39	X40	Y40	Z40	X41	Y41	Z41	X42	Y42	Z42	X43	Y43	Z43	X44	Y44	Z44	X45	Y45	Z45	X46	Y46	Z46	X47	Y47	Z47	X48	Y48	Z48	X49	Y49	Z49	X50	Y50	Z50	X51	Y51	Z51	
501	2.5050	540.583359	1271.606672	-190.908294	473.400784	1258.743436	-525.732369	491.614805	1315.937883	-369.993463	428.257497	1190.984734	-349.972195	548.987793	1024.510075	-70.231567	708.386814	886.380080	-109.461626	483.730321	980.012542	-577.410676	690.490378	897.425548	-507.487001	-25.631844	1118.818937	-301.701614	114.511706	1126.005046	-445.594247	105.685517	1135.665002	-160.091299	156.398432	1099.430842	-419.480336	151.397964	1099.335772	-183.243515	1.851315	1176.121158	-253.051998	12.524819	1193.032070	-337.029477	82.847560	1045.218437	-116.910194	71.847138	1037.151794	-473.143537	175.582964	1009.162308	-125.403088	260.728751	987.311774	-133.351335	325.958386	934.710262	-114.222049	274.387720	1011.281308	-159.093208	418.558041	827.402015	-151.637233	398.400637	812.812898	-261.471515	361.222791	730.662594	-139.448908	308.472759	660.735962	-159.667633	232.230909	620.358651	-152.002271	316.035203	655.971785	-197.964071	132.391589	552.469551	-152.581505	151.853979	562.513468	-235.434937	44.564457	556.515802	-197.691078	260.871377	366.545270	-184.707944	167.072068	425.884372	-134.003086	199.545338	414.824500	-238.991024	180.781557	943.316301	-492.868098	248.592614	888.752952	-488.232031	274.993340	908.114543	-471.339352	278.813811	804.584556	-487.575233	336.729854	723.903503	-467.766849	338.065855	690.202386	-369.847516	339.916073	620.374448	-496.403857	362.664691	537.465622	-484.214341	341.076160	449.824895	-490.564212	377.984995	539.341131	-445.949335	327.329685	340.952669	-483.150266	339.205219	336.226360	-403.756854	264.294237	293.549521	-452.172046	550.415641	250.694321	-430.638255	448.263717	241.777942	-502.186866	-162.323804	858.869155	-313.961626	37.444061	86.356990	-514.323485	33.966942	83.210528	-114.279093	
502	2.5100	539.601925	1273.205894	-189.581330	473.812287	1260.058116	-525.275163	491.022940	1317.955032	-368.943642	428.067604	1192.697473	-349.506141	549.230809	1025.012547	-70.590008	708.459933	886.426960	-109.526842	483.891212	980.975197	-576.631591	690.473467	897.364912	-507.343469	-25.265722	1118.043877	-302.243121	115.231900	1125.443031	-445.699011	105.352232	1135.491134	-160.371276	157.154339	1098.758636	-419.611127	151.224629	1099.359479	-183.457529	1.747474	1175.191911	-253.675213	12.705191	1192.112501	-337.622296	82.731276	1045.273906	-117.006672	72.581376	1036.014694	-473.226405	175.617420	1010.225594	-125.062798	261.173689	989.604856	-132.600855	327.062525	938.035042	-113.225450	274.553816	1013.842674	-158.261728	421.211846	831.688212	-150.370634	401.867750	817.589199	-260.350280	364.061923	734.937836	-138.524563	311.190249	665.262053	-159.003981	234.939335	625.012367	-151.510462	318.788880	660.589903	-197.294646	134.968070	557.184090	-152.380757	154.501917	567.374521	-235.375548	47.261298	561.270660	-197.451550	263.818746	371.495193	-184.773008	169.896809	430.774816	-133.839595	200.587735	420.095069	-239.142832	180.836892	941.420334	-493.070031	248.078643	886.130033	-488.409236	274.700509	905.190332	-471.392132	277.433165	801.669136	-487.822249	334.454038	720.454060	-468.101094	335.419920	686.715081	-370.349553	338.075953	617.383781	-497.426984	360.637801	534.246404	-484.734715	339.341438	446.520730	-491.092220	376.143095	536.081360	-446.593571	326.322564	337.679672	-483.767419	337.948868	333.056781	-404.279633	262.779676	291.320520	-452.711646	548.118733	244.417063	-430.520226	446.101181	236.931757	-502.245964	-162.297466	858.938056	-313.809551	37.427358	86.393540	-514.287634	33.968647	83.212405	-114.287833	
503	2.5150	538.550618	1274.847438	-188.194286	474.358616	1261.388496	-524.637197	490.485221	1319.959631	-367.910405	427.851422	1194.446746	-349.028340	549.452004	1025.597573	-70.970899	708.543051	886.486406	-109.594067	484.038955	981.972627	-576.012194	690.455750	897.350723	-507.229150	-24.859448	1117.280815	-302.986530	115.994074	1124.832390	-445.940958	104.902879	1135.362349	-160.942494	158.025931	1098.152564	-419.902006	151.062869	1099.356781	-183.637215	1.634208	1174.237040	-254.227907	12.761160	1190.977816	-338.173584	82.622073	1045.309478	-117.159147	73.375923	1034.916238	-473.243823	175.657458	1011.321555	-124.700116	261.583525	991.858309	-131.906498	328.101327	941.291937	-112.230916	274.666601	1016.323778	-157.545564	423.856644	836.139920	-149.072118	405.023495	821.851453	-259.295349	366.909484	739.226512	-137.605858	313.705879	669.531405	-158.441616	237.543297	629.655085	-151.073127	321.633140	664.882128	-196.582522	137.716309	561.949825	-152.257709	156.291391	573.588137	-235.125549	49.887596	565.925227	-197.352490	267.022200	376.655120	-184.769963	172.988143	435.668701	-133.893611	203.514378	424.965336	-239.310156	180.933566	939.500025	-493.206982	247.650273	883.631018	-488.571374	274.409417	902.397260	-471.507342	276.190592	798.790290	-488.072665	332.340546	717.144851	-468.332230	332.978595	683.373686	-370.678301	335.797869	614.180927	-497.917268	358.590924	531.164590	-485.209146	337.648633	443.255303	-491.582731	374.116764	533.008665	-447.002223	325.285518	334.543411	-484.432585	336.595825	329.961786	-404.856407	261.189237	289.275320	-453.134282	545.782095	237.927587	-430.442015	443.738193	232.031595	-502.290143	-162.247026	859.139935	-313.281190	37.433856	86.365915	-514.328649	33.965506	83.205348	-114.285119	
504	2.5200	537.427480	1276.461361	-186.763515	474.839728	1262.794563	-524.096902	489.905646	1321.944853	-366.815121	427.593471	1196.178271	-348.502918	549.638801	1026.181517	-71.308642	708.648470	886.533304	-109.635973	484.329050	982.932689	-575.360127	690.458506	897.298083	-507.119749	-24.142448	1116.492082	-302.610897	116.667395	1124.198962	-446.016681	104.533212	1135.101438	-161.217920	158.842128	1097.514876	-420.206123	150.887785	1099.284471	-183.849732	1.496366	1173.231203	-254.876881	12.805291	1189.884502	-338.764666	82.452201	1045.410368	-117.323336	74.162405	1033.769293	-473.290608	175.717492	1012.341446	-124.244177	261.946970	994.179307	-131.067581	329.094407	944.531809	-111.124391	274.801882	1018.768562	-156.713492	426.400219	840.552686	-147.787669	408.117823	826.238350	-258.333774	369.651515	743.276542	-137.340088	315.678370	673.661439	-158.513808	240.029566	634.387875	-150.102917	324.508931	669.423536	-195.749526	140.423521	566.600705	-152.100009	157.932017	578.591858	-234.059477	52.664680	570.190622	-197.163293	270.388909	381.786445	-184.751953	176.119081	440.416625	-133.762223	206.715572	429.511479	-239.739090	181.090177	937.677033	-493.327348	247.246316	881.124613	-488.690913	274.162165	899.665314	-471.560711	274.905068	796.069844	-488.331946	330.153363	714.003577	-468.644404	330.675381	680.045802	-370.891758	333.623940	611.124668	-498.249201	356.663216	528.145001	-485.554758	335.930764	440.173881	-492.009251	371.981368	530.014840	-447.257649	324.121878	331.542691	-484.947650	335.351618	326.887891	-405.257189	259.471772	287.440227	-453.450578	543.325209	231.714401	-430.453288	441.218572	227.272512	-502.343746	-162.332947	858.344895	-315.202344	37.442020	86.364528	-514.316745	33.975212	83.188721	-114.285850	
505	2.5250	536.243418	1278.126919	-185.288986	475.386861	1264.122000	-523.254812	489.314728	1323.867384	-365.645961	427.346467	1197.847316	-347.851939	549.834644	1026.768363	-71.681555	708.746197	886.586921	-109.742079	484.714361	983.940057	-574.791775	690.494650	897.255332	-506.996301	-23.958916	1115.871146	-304.104317	117.401594	1123.538241	-446.179705	104.162046	1134.831418	-161.589198	159.605779	1096.900337	-420.398289	150.637547	1099.194986	-184.167257	1.334647	1172.157865	-255.499812	12.833718	1188.726595	-339.330586	82.291895	1045.507216	-117.523010	74.944162	1032.638607	-473.386816	175.650242	1013.307851	-123.800546	262.225137	996.445413	-130.119661	329.985294	947.665696	-110.047545	274.810584	1021.245084	-155.797651	428.884953	845.026083	-146.565055	411.167088	830.677917	-257.391642	372.533414	747.834490	-135.784122	318.208226	678.391920	-157.776944	242.737647	638.769727	-149.681170	327.791021	674.232592	-194.387430	143.236724	570.987982	-151.917276	159.852638	583.068597	-233.241491	55.402523	574.476986	-197.031327	272.945520	386.088039	-186.190389	179.339522	445.090678	-133.625237	210.177831	433.905974	-239.816356	181.266157	935.900841	-493.454547	246.683521	878.547097	-488.313079	273.965507	896.975070	-471.667526	273.739590	793.445828	-488.453735	328.181866	710.891666	-468.825809	328.546368	676.894227	-371.084890	331.488413	608.163973	-498.571197	354.646831	525.286627	-485.940384	334.146328	437.218938	-492.413516	370.070987	527.132538	-447.559580	322.852729	328.715364	-485.418018	333.868194	324.027716	-405.688610	257.718019	285.797810	-453.775017	540.515886	225.451323	-430.369648	438.541921	222.597537	-502.390256	-162.332728	859.175154	-313.169717	37.437923	86.375606	-514.325290	33.969681	83.202094	-114.298806	
506	2.5300	534.999137	1279.761928	-183.860521	476.115329	1265.338744	-521.568336	488.704331	1325.778639	-364.455509	427.059922	1199.515504	-347.201058	550.035617	1027.257826	-72.061297	708.797419	886.650763	-109.953203	485.125780	985.153236	-574.295012	690.615831	897.240864	-506.717381	-23.586133	1115.037830	-304.817177	118.082456	1122.905659	-446.297386	103.773908	1134.468567	-161.927451	160.708631	1096.321484	-421.391757	150.366629	1099.077391	-184.498830	1.201420	1171.129719	-256.187120	12.855356	1187.485109	-339.924190	82.131190	1045.612239	-117.745500	75.664610	1031.588907	-473.478936	175.488947	1014.203939	-123.321642	262.391061	998.588245	-129.265120	330.729446	950.731468	-108.849587	274.737063	1023.603209	-154.890203	431.321460	849.554514	-145.356210	414.107552	835.115346	-256.503542	375.175186	752.145935	-134.811576	320.944558	682.834838	-157.057514	245.466625	643.211536	-149.168026	330.626786	678.550796	-193.694235	146.154798	575.469331	-151.828543	162.346726	587.579416	-233.563364	58.224044	578.451279	-197.061009	276.664523	391.170990	-186.185327	182.823525	449.819506	-133.673951	213.493445	438.728555	-240.118890	181.441663	934.185477	-493.588280	246.364495	876.208237	-488.418015	273.746707	894.463468	-471.745836	272.572446	790.922046	-488.640216	326.367079	707.890872	-468.906823	326.787949	674.172134	-371.015423	329.335781	605.269977	-498.810386	352.815197	522.572715	-486.064530	332.391174	434.396520	-492.787483	368.194113	524.256436	-447.919648	321.626262	325.908846	-485.928507	332.374828	321.326341	-406.092153	255.960191	284.344687	-454.047110	537.701995	219.101351	-430.401462	435.656937	217.875298	-502.385576	-162.429351	859.206957	-313.556520	37.429852	86.393283	-514.319189	33.955608	83.222310	-114.293287	
